Coordinates
version=1
nRows=19
nColumns=36
inDegrees=yes

Units are S.I. units (second, meters, Newtons, ...)
If the header above contains a line with 'inDegrees', this indicates whether rotational values are in degrees (yes) or radians (no).

endheader
time	pelvis_tilt	pelvis_list	pelvis_rotation	pelvis_tx	pelvis_ty	pelvis_tz	hip_flexion_r	hip_adduction_r	hip_rotation_r	knee_angle_r	knee_angle_r_beta	ankle_angle_r	subtalar_angle_r	mtp_angle_r	hip_flexion_l	hip_adduction_l	hip_rotation_l	knee_angle_l	knee_angle_l_beta	ankle_angle_l	subtalar_angle_l	mtp_angle_l	lumbar_extension	lumbar_bending	lumbar_rotation	arm_flex_r	arm_add_r	arm_rot_r	elbow_flex_r	pro_sup_r	arm_flex_l	arm_add_l	arm_rot_l	elbow_flex_l	pro_sup_l
      4.45000000	     -6.89074534	     -3.16105898	      1.15017574	     -0.19575261	      0.95394895	      0.01608026	     17.26427368	      9.47472877	     -1.46961014	     17.30253380	      0.30198618	      9.81984154	     -3.70776061	     -7.49999987	     36.99318587	     -4.80176750	      5.26489535	     19.07031565	      0.33283980	     -4.04414029	      3.12060776	     -7.49999987	      0.75353533	     -9.17262855	    -12.44695899	     47.62895042	     -5.50105167	     58.09097526	    120.84556593	     75.99143797	     57.28651472	    -20.49503332	     59.95672600	    134.33232219	     80.95270773
      4.46666670	     -7.10400928	     -3.17865716	      0.69919508	     -0.19458704	      0.94730666	      0.00921374	     16.95639901	      9.38964393	     -1.25861310	     16.76656499	      0.29263176	      9.69764915	     -4.00142563	     -7.49999987	     35.71305923	     -5.56534053	      5.54357624	     18.51830146	      0.32320533	     -4.65982775	      2.36647408	     -7.49999987	      1.20822022	     -8.80389540	    -12.50478345	     48.14407667	     -5.73963490	     57.83290375	    119.20961809	     76.16126514	     57.80549691	    -19.60469193	     60.98843473	    134.59896794	     81.11365058
      4.48333330	     -7.19509583	     -3.31182390	      0.22229063	     -0.19424390	      0.94792633	      0.00918626	     16.81520182	      9.46792989	     -0.93934028	     16.49431278	      0.28788007	      9.34487718	     -4.19743449	     -7.49999987	     34.96396587	     -6.48932341	      5.69939928	     18.39408027	      0.32103726	     -5.36518192	      1.33945767	     -7.49999987	      1.28905233	     -8.40465513	    -12.59946514	     48.68403639	     -5.70228076	     57.79493139	    117.88951635	     76.51019090	     58.60440083	    -19.00606204	     61.93217827	    133.84983774	     81.25035337
      4.50000000	     -7.32133643	     -3.37757270	     -0.45278506	     -0.18816753	      0.95276925	      0.00541836	     16.55282886	      9.45971409	     -0.55329057	     16.02666763	      0.27971812	      9.12108118	     -3.89947054	     -7.49999987	     34.08011021	     -7.37864658	      5.62324982	     17.97828783	      0.31378032	     -5.54185041	      1.01106509	     -7.49999987	      1.60424412	     -8.03829797	    -12.67121020	     48.08068360	     -6.39466908	     58.41718982	    118.60259344	     76.71004553	     57.86684806	    -19.25980611	     62.13525949	    133.42030691	     81.30276260
      4.51666670	     -7.65825342	     -3.55496389	     -1.10880637	     -0.18775062	      0.95234212	      0.00557643	     16.97899606	      9.60844021	     -0.24484146	     16.09994849	      0.28099711	      8.73571360	     -3.57839197	     -7.49999987	     33.88996923	     -8.25667998	      5.59794576	     17.86354099	      0.31177761	     -5.45519642	      0.83846553	     -7.49999987	      1.95102711	     -7.56880193	    -12.52642122	     47.87538398	     -6.41835563	     58.83098378	    117.79300752	     76.43773459	     57.98172557	    -18.64975016	     61.92060494	    132.06257777	     80.79640491
      4.53333330	     -8.16590905	     -3.74014807	     -1.67121727	     -0.18730971	      0.94428926	      0.00685547	     17.60830679	      9.84230082	      0.16646374	     16.21930907	      0.28308035	      8.67255667	     -3.40372562	     -7.49999987	     34.19337224	     -9.05688860	      5.55658736	     17.73646181	      0.30955966	     -4.97927789	      0.78776877	     -7.49999987	      2.46003102	     -7.22189897	    -12.89119076	     48.59751280	     -6.15344233	     59.49562398	    118.25111299	     75.73125096	     59.15821869	    -17.85587791	     60.92005279	    130.56044377	     79.52840980
      4.55000000	     -8.44870282	     -3.91371580	     -2.20544562	     -0.18680814	      0.94494438	      0.00621052	     18.31469683	     10.08447852	      0.52229971	     16.88198103	      0.29464615	      8.62994092	     -3.55168926	     -7.49999987	     34.26658381	     -9.74823925	      5.52653083	     17.59485541	      0.30708816	     -4.70221948	      0.71371084	     -7.49999987	      2.71763154	     -6.70873756	    -13.29099310	     49.28967106	     -5.49665545	     60.30015367	    117.21233308	     79.82994748	     59.71811900	    -17.55794583	     60.40385393	    129.58780268	     82.92455868
      4.56666670	     -8.87145251	     -4.01734189	     -2.67475655	     -0.18628529	      0.94473573	      0.00672208	     18.98069444	     10.26322406	      0.90566403	     17.33453532	      0.30254472	      8.84137693	     -3.43411735	     -7.49999987	     34.55879069	    -10.27531619	      5.38138403	     17.38617031	      0.30344592	     -4.43083979	      0.76218617	     -7.49999987	      3.07470415	     -6.30604143	    -13.24902724	     49.13970157	     -5.17057983	     60.57723644	    116.62304330	     79.12126333	     60.13132423	    -17.49033495	     60.38626802	    128.79922835	     82.14589550
      4.58333330	     -9.09759515	     -3.91661274	     -3.18309303	     -0.18005831	      0.94511314	      0.00232869	     19.24926575	     10.23456404	      1.58674974	     17.62224218	      0.30756615	      9.33418652	     -3.27180219	     -7.49999987	     34.42126951	    -10.54464941	      4.69459445	     16.98869382	      0.29650864	     -4.01476929	      1.02020015	     -7.49999987	      3.37027416	     -5.97630375	    -12.99557948	     49.47660353	     -5.06227886	     61.53288045	    116.82889490	     79.36364973	     60.48214595	    -16.98441126	     60.72958889	    128.73082536	     82.36919783
      4.60000000	     -9.40904500	     -3.87830358	     -3.55095813	     -0.17974619	      0.94848627	      0.00241294	     19.55373590	     10.25447669	      2.04874348	     17.67857389	      0.30854932	      9.65821192	     -3.20396079	     -7.49999987	     34.17499112	    -10.77229454	      4.21436861	     16.33705475	      0.28513540	     -3.83235326	      1.59094178	     -7.49999987	      3.89676218	     -5.61240242	    -12.56022631	     48.94469740	     -5.14195204	     62.20867205	    116.75818980	     78.01314991	     59.97569121	    -16.37652019	     60.97881589	    128.91634396	     80.90502907
      4.61666670	     -9.48563135	     -3.89506595	     -3.64447778	     -0.17934208	      0.94478783	      0.00223040	     19.63375806	     10.26006311	      2.43818192	     17.72901724	      0.30942972	     10.10309418	     -3.08318388	     -7.49999987	     33.74283830	    -10.94141347	      3.91112609	     15.56664408	      0.27168919	     -3.76123801	      2.16576331	     -7.49999987	      3.95096160	     -5.29942963	    -12.52032498	     48.87714306	     -5.02782587	     62.36977667	    116.62275141	     83.08547974	     60.02895952	    -16.03933152	     60.62228064	    128.96522107	     86.89113368
      4.63333330	     -9.74054391	     -3.82266563	     -3.81802432	     -0.17922553	      0.94501807	      0.00259667	     19.97104275	     10.23905421	      2.97257810	     17.87077756	      0.31190391	     10.41630357	     -3.19907858	     -7.49999987	     33.45851835	    -11.05823776	      3.48981250	     14.69674487	      0.25650659	     -3.65691797	      2.72125576	     -7.49999987	      4.17434613	     -5.04038807	    -12.29289412	     48.80681878	     -4.72851156	     62.43398774	    116.57776671	     82.71781783	     59.96748793	    -16.03470538	     60.76600767	    129.29924439	     86.51619985
      4.65000000	     -9.95381473	     -3.84510518	     -3.90073693	     -0.17917087	      0.94499357	      0.00233200	     20.24681981	     10.27867480	      3.24183867	     17.89110721	      0.31225873	     10.47308362	     -3.24846011	     -7.49999987	     33.27600314	    -11.21125584	      3.32061540	     13.95846190	      0.24362112	     -3.76815823	      3.01746498	     -7.49999987	      4.38786897	     -4.73881474	    -12.12294363	     48.72953322	     -4.54826178	     62.42119106	    116.65483778	     82.42589385	     59.72890617	    -16.29845900	     60.55790017	    129.52952613	     86.18970156
      4.66666670	    -10.11406861	     -3.84971163	     -4.06834284	     -0.17896028	      0.94513621	      0.00275999	     20.41818388	     10.32916242	      3.53825298	     17.87643636	      0.31200267	     10.48476300	     -3.29682826	     -7.49999987	     33.03432432	    -11.39491340	      3.18278721	     13.36822559	      0.23331955	     -3.75732240	      3.23973414	     -7.49999987	      4.60591588	     -4.43156142	    -11.88255257	     48.88266650	     -4.07219949	     62.72424412	    116.78345277	     82.12878561	     59.62260913	    -16.31317298	     60.36045183	    129.86807552	     85.78131842
      4.68333330	    -10.09440487	     -3.91318538	     -4.15670086	     -0.17907943	      0.94178133	      0.00288451	     20.43147826	     10.41269155	      3.85207151	     17.96621794	      0.31356966	     10.74108430	     -3.37797425	     -7.49999987	     32.97329214	    -11.61239633	      3.17138477	     13.21524416	      0.23064952	     -3.51966402	      3.36080446	     -7.49999987	      4.76810338	     -3.88444866	    -11.89443436	     49.84557924	     -3.26993174	     63.12331577	    116.76611806	     87.45197596	     59.71140072	    -15.90632182	     59.68764960	    130.70508493	     89.50482487
      4.70000000	     -9.91303085	     -3.92615645	     -4.27335500	     -0.17934496	      0.94872870	      0.00328672	     20.29473308	     10.42099740	      4.17398806	     18.08042730	      0.31556299	     10.73609346	     -3.31564868	     -7.49999987	     33.03159114	    -11.76627584	      3.07719619	     13.64553791	      0.23815956	     -3.19250507	      3.32962013	     -7.49999987	      4.52419280	     -3.48933733	    -11.04542942	     50.13933342	     -3.21955041	     63.30764253	    116.71952885	     86.04476969	     59.44015725	    -14.90467448	     60.78268271	    131.03925697	     88.18249799
      4.71666670	     -9.86042840	     -3.93090825	     -4.42021027	     -0.17958015	      0.94836001	      0.00338628	     20.28539892	     10.43119509	      4.37438572	     18.19583956	      0.31757731	     10.81798135	     -2.99038166	     -7.49999987	     33.63932694	    -11.91767366	      2.99550076	     14.65300011	      0.25574310	     -2.89097149	      3.06082070	     -7.49999987	      4.52665696	     -3.04198971	    -10.40917166	     50.29379322	     -2.96973017	     63.29264758	    116.25394951	     85.23148088	     58.97010468	    -14.21479290	     61.55258404	    131.25433218	     87.44878418
      4.73333330	     -9.41806119	     -3.96809529	     -4.52458425	     -0.18017496	      0.95227942	      0.00349808	     19.80229427	     10.43830103	      4.56003047	     18.10175978	      0.31593531	     10.95695036	     -2.56177182	     -7.49999987	     33.77429686	    -12.02348365	      3.12160842	     15.58925646	      0.27208385	     -2.62713872	      3.02273322	     -7.49999987	      4.01667414	     -2.71491405	     -9.28525925	     50.17315747	     -3.61697057	     62.91448151	    116.19778775	     88.51722380	     59.10016714	    -12.70302021	     62.14033764	    130.72538098	     91.68012330
      4.75000000	     -8.93239156	     -3.91494867	     -4.58051250	     -0.18073070	      0.95227744	      0.00347182	     19.23829435	     10.33854436	      4.71776497	     17.92131697	      0.31278599	     10.95507876	     -2.11510953	     -7.49999987	     34.00981567	    -12.03006941	      3.09316628	     16.80958613	      0.29338262	     -2.43566276	      3.24971736	     -7.49999987	      3.59891997	     -2.38197806	     -8.95132793	     50.58271770	     -3.67452475	     63.08405495	    115.76680803	     87.75582914	     58.81900673	    -12.14238061	     62.26409768	    130.37745204	     90.99297479
